<?xml version="1.0" encoding="UTF-8" standalone="no"?>
<!-- Created with Inkscape (http://www.inkscape.org/) -->

<svg
   version="1.1"
   id="svg1"
   width="1000"
   height="782"
   viewBox="0 0 1000 782"
   sodipodi:docname="lets_encrypt.svg"
   inkscape:version="1.3.2 (091e20e, 2023-11-25, custom)"
   xmlns:inkscape="http://www.inkscape.org/namespaces/inkscape"
   xmlns:sodipodi="http://sodipodi.sourceforge.net/DTD/sodipodi-0.dtd"
   xmlns="http://www.w3.org/2000/svg"
   xmlns:svg="http://www.w3.org/2000/svg">
  <defs
     id="defs1" />
  <sodipodi:namedview
     id="namedview1"
     pagecolor="#ffffff"
     bordercolor="#000000"
     borderopacity="0.25"
     inkscape:showpageshadow="2"
     inkscape:pageopacity="0.0"
     inkscape:pagecheckerboard="0"
     inkscape:deskcolor="#d1d1d1"
     showgrid="false"
     inkscape:zoom="1.0396419"
     inkscape:cx="500.1722"
     inkscape:cy="446.78844"
     inkscape:window-width="1920"
     inkscape:window-height="1009"
     inkscape:window-x="1272"
     inkscape:window-y="70"
     inkscape:window-maximized="1"
     inkscape:current-layer="g1" />
  <g
     inkscape:groupmode="layer"
     inkscape:label="Image"
     id="g1">
    <path
       style="fill:#000080;fill-opacity:1"
       d="m 703.68731,537.87668 0.012,-87.75 h 17.3731 17.3732 l -0.1677,7.33346 -0.1676,7.33345 2.5191,-0.13457 2.5192,-0.13457 1.2523,-2.44888 1.2524,-2.44889 1.2517,0.33333 1.2517,0.33334 -0.7413,-0.74133 -0.7414,-0.74132 1.1047,-1.331 1.1046,-1.331 0.8867,0.54801 0.8867,0.548 v -0.944 c 0,-0.51921 1.1804,-1.71744 2.6231,-2.66275 l 2.6231,-1.71873 -0.6821,1.10372 -0.6821,1.10373 h 1.059 1.059 v -1.46862 -1.46861 l 1.664,0.63855 1.6641,0.63856 -0.6522,-1.0553 -0.6522,-1.0553 4.4559,-1.46694 4.4559,-1.46693 -0.5268,0.85229 -0.5267,0.8523 2.309,-0.0153 2.309,-0.0153 -1.5,-0.96937 -1.5,-0.96937 11.5,0.055 11.5,0.055 -2,0.94883 -2,0.94883 3.2112,-0.48636 3.2112,-0.48636 0.6142,0.99376 c 0.3378,0.54658 1.1428,0.92852 1.7888,0.84877 0.646,-0.0797 1.8496,-0.0848 2.6746,-0.0112 l 1.5,0.1338 -1.5,1.02943 -1.5,1.02944 2,-0.1599 c 1.1,-0.088 2.8141,-0.10809 3.809,-0.0448 l 1.809,0.11513 -0.618,1 -0.618,1 h 1.8678 1.8679 l 1.9412,1.57416 1.9411,1.57415 -1.5,-0.73448 -1.5,-0.73448 0.8206,0.89757 c 0.4513,0.49366 1.5763,0.90331 2.5,0.91033 l 1.6794,0.0127 -0.2748,1.32433 -0.2748,1.32433 0.8132,-0.50259 0.8133,-0.50259 2.9639,3.17826 c 1.6301,1.74804 3.8628,4.26811 4.9615,5.60015 l 1.9977,2.4219 -1.25,-0.73091 -1.25,-0.73091 v 1.05901 1.05902 h 1.4648 1.4648 l 0.9001,1.75 0.9,1.75 -0.4946,1.3892 -0.4946,1.38919 1.025,-0.63345 1.0249,-0.63345 0.5934,1.54619 0.5933,1.5462 -1.2386,-0.6261 -1.2385,-0.62609 1.7021,1.39936 1.7021,1.39937 -0.5327,2.03688 -0.5326,2.03689 1.6439,0.63084 1.644,0.63084 -0.6915,1.11887 -0.6915,1.11887 1.3276,0.82051 1.3276,0.82051 -0.2417,4.09688 -0.2418,4.09688 1.5423,1.54223 1.5422,1.54224 -0.024,4.67857 -0.024,4.67857 -1.1085,4 c -0.9557,3.44829 -1.4333,7.04841 -1.7912,13.5 l -0.083,1.5 -0.8847,-1.39721 -0.8847,-1.39722 v 3.83751 3.83751 l -1.7001,1.24317 -1.7002,1.24317 0.6592,1.06654 0.6592,1.06653 h -1.118 -1.118 l 0.502,0.81238 0.5021,0.81239 -1.7149,2.61423 c -0.9432,1.43783 -2.9469,3.58329 -4.4526,4.76769 l -2.7377,2.15346 0.6075,0.98294 0.6075,0.98294 -1.7529,1.93698 c -0.9642,1.06535 -2.3424,1.93699 -3.0628,1.93699 h -1.3098 l -0.9946,1.85838 c -0.547,1.02211 -2.1933,2.64379 -3.6583,3.60373 l -2.6638,1.74534 0.6822,-1.10372 0.6821,-1.10373 h -1.0023 c -0.5513,0 -1.5903,0.82859 -2.309,1.8413 -0.7187,1.01272 -2.3192,2.37855 -3.5567,3.03518 l -2.25,1.19389 v -1.22632 -1.22631 l -1.3483,1.84391 -1.3483,1.8439 -1.2635,-0.78089 -1.2635,-0.78089 -0.6382,0.98387 -0.6382,0.98387 -4,0.68135 -4,0.68134 1.5,-1.06748 1.5,-1.06747 -3,0.74409 -3,0.7441 -6.5421,-0.10347 -6.542,-0.10347 -4.7858,-1.62479 c -2.6321,-0.89364 -6.1007,-2.30481 -7.7079,-3.13593 l -2.9222,-1.51114 v -1.03334 -1.03333 l -0.8546,0.52819 -0.8547,0.5282 -2.0848,-2.21918 c -1.1466,-1.22055 -2.1527,-2.66918 -2.2356,-3.21918 -0.083,-0.55 -0.5465,-1.675 -1.0301,-2.5 l -0.8794,-1.5 -0.03,1.37244 -0.03,1.37245 -1.5,-1.24489 -1.5,-1.24489 -0.09,1.87245 c -0.049,1.02984 -0.1,17.28494 -0.1123,36.12244 l -0.023,34.25 h -17.8877 -17.8877 l -0.015,-1.25 -0.015,-1.25 -0.9755,1.5 -0.9755,1.5 z m 21.2195,85.5096 c -3.4375,-0.19527 -9.0625,-0.19527 -12.5,0 l -6.25,0.35504 h 12.5 12.5 z m 43.4792,-55.86377 -0.6042,-0.60416 -1.3125,0.52522 -1.3125,0.52522 1.9167,0.0789 1.9166,0.0789 z m -12.2292,-4.39583 c -0.3399,-0.55 -1.154,-0.99311 -1.809,-0.98469 l -1.191,0.0153 1.5,0.96937 c 1.9211,1.24153 2.2673,1.24153 1.5,0 z m 13.5,-24.00575 c 3.575,0.36114 7.2824,0.45901 8.2387,0.2175 l 1.7388,-0.43913 -0.5478,-0.88631 -0.5477,-0.88631 1.309,-0.11842 c 0.7199,-0.0651 1.6261,-0.0719 2.0138,-0.0151 0.3876,0.0568 2.1523,-1.21874 3.9214,-2.83463 l 3.2167,-2.93798 0.9831,0.60756 0.983,0.60756 -0.7551,-1.22182 -0.7551,-1.22182 2.1167,-0.55353 2.1167,-0.55353 -0.2661,-1.62916 -0.2661,-1.62913 1.1551,0.21838 1.1552,0.21838 0.5834,-1.52032 0.5834,-1.52032 -0.9771,0.60388 -0.9771,0.60388 0.5933,-1.5462 0.5934,-1.54619 0.7815,0.48301 0.7815,0.48301 0.5204,-1.99014 0.5205,-1.99013 -0.7163,0.44269 -0.7163,0.44269 0.7491,-5.69131 c 0.4119,-3.13022 0.9796,-8.16631 1.2615,-11.19131 l 0.5126,-5.5 -0.8204,3.5 -0.8204,3.5 -0.2468,-4 c -0.1358,-2.2 -0.1584,-4.83669 -0.05,-5.85931 l 0.1965,-1.85931 -0.9881,0.61069 -0.9881,0.61069 0.5234,-2.00138 0.5234,-2.00138 h -1.5486 -1.5485 l -2.3166,-3.25 c -1.2741,-1.7875 -2.3172,-3.6625 -2.3181,-4.16667 -8e-4,-0.50416 -0.6765,-1.10092 -1.5015,-1.32613 l -1.5,-0.40946 1.5,1.06082 1.5,1.06081 -1,-0.0165 c -0.55,-0.009 -1.7805,-0.60917 -2.7345,-1.33356 l -1.7344,-1.31707 0.7344,-0.73446 0.7345,-0.73446 -1,0.20176 c -0.55,0.11096 -1.3375,0.0922 -1.75,-0.0417 -1.6398,-0.53222 -2.8394,-0.74885 -4.809,-0.86842 l -2.059,-0.125 0.4631,-0.75 0.4631,-0.75 -7.4286,-0.0742 -7.4287,-0.0742 1.2745,0.80888 1.2746,0.80887 -2.5,0.1338 c -1.375,0.0736 -3.0113,0.0725 -3.6362,-0.002 l -1.1362,-0.13619 -0.5824,1.5177 -0.5824,1.51771 -1.2814,-0.0153 -1.2814,-0.0153 1.5,-1.06081 1.5,-1.06082 -1.5,0.40946 -1.5,0.40947 v 1.02086 c 0,0.56148 -1.555,2.32398 -3.4555,3.91667 l -3.4555,2.8958 0.86,-1.40451 0.86,-1.40451 -1.2227,0.75566 -1.2227,0.75566 0.5514,1.4367 0.5513,1.43671 -1.2723,0.48823 -1.2723,0.48822 -0.1481,1.96521 c -0.081,1.08087 -0.9066,2.98163 -1.8338,4.22392 l -1.6859,2.25871 0.5794,-1.71797 0.5793,-1.71798 -1.0023,-0.6195 -1.0024,-0.6195 0.6239,5.33747 0.6239,5.33748 -0.8279,-1.15541 -0.8278,-1.15542 v 5.65542 5.65541 l 0.8125,0.59768 0.8126,0.59767 0.09,3.15233 0.09,3.15232 h 0.8164 0.8165 l -0.6386,1.66404 -0.6385,1.66405 1.1699,-0.72306 1.1699,-0.72306 0.1185,1.30901 c 0.065,0.71996 0.054,1.67997 -0.025,2.13335 l -0.1432,0.82433 0.7747,-0.42512 0.7748,-0.42513 2.9419,3.6008 c 1.618,1.98043 2.3155,3.03829 1.55,2.35079 -0.7656,-0.6875 -1.8644,-1.23632 -2.4419,-1.21959 l -1.05,0.0304 2,1.18082 c 1.1,0.64945 2.6213,1.27958 3.3807,1.40029 0.7594,0.12071 1.8844,0.76667 2.5,1.43547 l 1.1193,1.21601 -1.2385,-0.69864 -1.2386,-0.69865 0.5406,1.40872 0.5406,1.40871 2.5258,-0.27727 2.5258,-0.27726 1.6263,1.89929 1.6262,1.89929 0.5459,-0.80998 0.5459,-0.80998 z m 29.6831,-25.18175 -0.5252,-1.3125 -0.079,1.91667 -0.079,1.91666 0.6042,-0.60416 0.6041,-0.60417 z m 35.0242,-7.05084 -0.4349,-2.26166 -0.02,4 -0.02,4 0.455,-1.73834 c 0.2503,-0.95609 0.2594,-2.75609 0.02,-4 z m -82.7073,-47.20264 c 0,-0.24254 -0.45,-0.7191 -1,-1.05902 l -1,-0.61803 v 1.05901 1.05902 h 1 c 0.55,0 1,-0.19844 1,-0.44098 z m -172.49298,163.35959 1.993,-0.77804 -3.5,-0.0839 c -1.925,-0.0462 -4.625,-0.34183 -6,-0.65703 l -2.5,-0.57309 1.5,1.07143 1.5,1.07143 -1.5,-0.055 c -0.825,-0.0302 -2.4,-0.44171 -3.5,-0.9144 l -2,-0.85943 1.5,-0.0856 1.5,-0.0856 -1.22103,-0.77579 -1.22102,-0.7758 0.60186,-3.70889 0.60187,-3.7089 h 0.99697 0.99697 l -0.49551,-3.75 -0.49551,-3.75 0.6177,-6.40968 0.6177,-6.40967 10.47334,0.0968 10.47333,0.0968 1.4122,-1.17202 c 0.77671,-0.64461 2.09468,-1.1788 2.92882,-1.18709 l 1.51662,-0.0151 0.27525,-1.85828 c 0.15139,-1.02205 1.15156,-2.82205 2.2226,-4 l 1.94735,-2.14172 1.70819,-5.25776 1.70819,-5.25775 0.75873,0.46892 0.75874,0.46893 0.0229,-6.19995 0.0229,-6.19995 -1.61457,-1.33538 -1.61458,-1.33537 1.25,0.63317 1.25,0.63317 v -0.98229 c 0,-0.54026 -1.17321,-2.37657 -2.60714,-4.0807 l -2.60713,-3.0984 -0.14287,-2.38236 -0.14286,-2.38236 -0.75,0.46306 -0.75,0.46305 -0.11842,-1.80901 c -0.0651,-0.99496 -0.0483,-2.19709 0.0375,-2.67139 0.0857,-0.4743 -0.59223,-1.4094 -1.50658,-2.07799 l -1.66251,-1.21565 v -2.65378 -2.65378 l -0.77759,0.48058 -0.77759,0.48058 -1.08543,-3.11369 -1.08544,-3.11368 0.64253,-1.03964 0.64254,-1.03964 -1.23589,0.76382 -1.23588,0.76382 0.19653,-1.85931 c 0.10809,-1.02262 0.13782,-2.75931 0.0661,-3.85931 l -0.13047,-2 -0.84595,1.33453 -0.84594,1.33454 -0.54548,-2.08592 -0.54548,-2.08591 1.15674,0.58816 c 0.63621,0.32348 0.10838,-0.26738 -1.17295,-1.31304 l -2.32969,-1.90119 -0.27791,-3.43558 c -0.15284,-1.88958 -0.34198,-3.79965 -0.42031,-4.24461 l -0.14244,-0.80901 -1,0.61803 -1,0.61803 -0.11848,-1.30901 c -0.0652,-0.71996 -0.0454,-1.87152 0.0438,-2.55902 l 0.16232,-1.25 h -1.11122 -1.11123 l 0.63634,-2.00493 0.63634,-2.00492 -1.56959,-0.60231 -1.56959,-0.60231 -2.1031,-4.64276 -2.1031,-4.64277 0.0374,-2.768 0.0374,-2.76799 -0.7874,0.48664 -0.7874,0.48664 -1.15894,-2.54358 -1.15893,-2.54358 0.66721,-1.07957 0.66722,-1.07958 -1.15451,0.71353 -1.15451,0.71352 -0.125,-1.55901 c -0.0688,-0.85746 -0.18125,-2.42152 -0.25,-3.47569 -0.0688,-1.05416 -0.53465,-2.29166 -1.03533,-2.75 l -0.91032,-0.83333 0.81483,1.40451 0.81484,1.40451 -1.0338,-0.63893 c -0.5686,-0.35141 -1.27116,-1.54656 -1.56125,-2.65589 l -0.52745,-2.01696 0.89528,0.55332 0.89529,0.55332 -0.59333,-1.5462 -0.59333,-1.54619 -0.89521,0.55327 -0.89522,0.55327 -0.11848,-1.80901 c -0.0652,-0.99496 -0.0351,-2.41668 0.0669,-3.15937 l 0.18536,-1.35035 -0.96947,0.59916 -0.96947,0.59917 -1.01575,-2.9138 -1.01576,-2.91381 0.58501,-0.58501 0.58496,-0.58501 h -1.05967 -1.05968 l -0.59554,-1.55194 -0.59553,-1.55194 0.98854,0.61096 c 1.523,0.94126 1.17152,-0.18125 -0.61664,-1.96942 l -1.6052,-1.60519 21.1052,0.10705 21.10519,0.10704 0.11848,1.67672 c 0.0652,0.9222 0.025,2.32836 -0.0893,3.12482 l -0.20781,1.4481 1.4441,1.05594 1.4441,1.05595 2.80342,7.99596 2.80343,7.99595 -0.15154,2.3049 -0.15153,2.3049 0.87965,-0.54365 0.87965,-0.54366 0.52007,1.98876 0.52007,1.98875 h -0.94533 -0.94534 l 2.03895,2.18856 c 2.07649,2.22885 2.41302,3.48041 2.06336,7.67379 l -0.19698,2.36234 1.05698,-0.65324 1.05697,-0.65325 0.66965,2.7909 c 0.36831,1.535 1.27986,4.00286 2.02565,5.48415 l 1.356,2.69325 -0.99634,0.61577 c -0.54801,0.33867 -0.99636,1.06576 -0.99636,1.61576 v 1 l 1,-0.61803 1,-0.61803 0.11848,1.30901 c 0.0652,0.71996 0.0351,1.91668 -0.0669,2.65937 l -0.18536,1.35035 1.06688,-0.65936 1.06688,-0.65937 0.125,1.55901 c 0.19253,2.40122 0.34931,2.88485 1.7602,5.4297 l 1.31434,2.37067 -1.09977,-0.67969 -1.09975,-0.67969 v 1.55901 1.55902 l 1.23906,-0.25 1.23906,-0.25 -0.32535,2.86235 -0.32535,2.86234 1.00088,-0.61857 1.00088,-0.61858 0.39102,1.17307 0.39102,1.17306 2.12091,-2.27653 2.12091,-2.27652 -0.59646,-1.55436 -0.59646,-1.55435 1.07668,0.66542 1.07668,0.66543 -0.52337,-2.00138 -0.52337,-2.00138 h 0.90392 0.90392 l 0.22335,-3.25 0.22334,-3.25 1.87923,-1.57111 1.87923,-1.57111 -0.83921,-1.49958 -0.83921,-1.49958 1.44935,-2.79362 c 0.79713,-1.53649 1.44934,-3.76705 1.44934,-4.9568 v -2.16319 l 1.51828,-2.16765 c 0.83506,-1.19221 1.45677,-2.52984 1.38158,-2.97251 -0.0752,-0.44267 -0.0834,-1.61891 -0.0183,-2.61387 l 0.11844,-1.80901 0.8871,0.54825 0.88709,0.54826 -0.11192,-1.23924 c -0.0616,-0.68158 0.26376,-3.21068 0.72293,-5.62023 l 0.83486,-4.38099 0.97085,1.38099 0.97086,1.38099 -0.57122,-2.63558 -0.57122,-2.63558 1.49034,-1.23686 c 0.81968,-0.68028 1.49033,-1.65833 1.49033,-2.17344 v -0.93657 l -1.09977,0.67969 -1.09977,0.67969 1.28158,-2.37067 c 0.70487,-1.30388 1.39387,-3.3814 1.53113,-4.61673 0.13725,-1.23533 0.53784,-3.15437 0.89019,-4.26452 l 0.64063,-2.01847 1.01429,0.62686 1.0143,0.62687 -0.19698,-2.36234 c -0.10834,-1.29929 -0.14717,-2.92485 -0.0863,-3.61235 l 0.1107,-1.25 h 19.44098 19.44103 l 0.5354,0.86635 0.5354,0.86636 -1.9764,1.78863 c -1.087,0.98375 -1.9764,2.19545 -1.9764,2.69266 v 0.90403 l 1.25,-0.73091 1.25,-0.73091 -1.75,2.00064 -1.75,2.00063 v 2.23028 2.23027 l -1.16995,-0.72306 -1.16994,-0.72306 0.62627,1.63202 0.62626,1.63202 -0.97264,0.60112 -0.97263,0.60113 0.57533,0.9309 0.57532,0.9309 h -1.02763 -1.02763 l 0.5756,1.5 0.57561,1.5 h -1.27366 -1.27365 l 0.58501,0.58501 0.58501,0.58501 -1.01576,2.91381 -1.01575,2.9138 -0.79781,-0.49307 -0.7978,-0.49307 -0.60479,1.57604 c -0.87676,2.28482 -0.7568,2.6194 0.64522,1.79959 l 1.25,-0.73091 -2,2.34379 -2,2.34379 1.34977,-0.79257 1.34977,-0.79257 -1.08831,2.03352 c -0.59857,1.11844 -1.65597,2.26222 -2.34977,2.54173 l -1.26146,0.50821 1.15638,0.0789 1.15638,0.0789 -0.52007,1.98875 -0.52007,1.98876 -1.05625,-0.6528 -1.05625,-0.6528 0.63856,1.66405 0.63855,1.66404 h -1.02763 -1.02763 l 0.56226,0.90976 0.56226,0.90976 -0.60803,1.58449 -0.60803,1.5845 -1.04972,-0.64876 -1.04973,-0.64877 0.75272,1.21793 0.75272,1.21792 -2.21517,5.92332 -2.21518,5.92331 -0.71637,-0.44274 -0.71637,-0.44274 v 3.09755 3.09756 l -1.73168,1.26624 -1.73168,1.26623 0.1835,1.34222 c 0.10092,0.73822 0.13018,1.93128 0.065,2.65124 l -0.11847,1.3091 -0.93948,-0.58063 -0.93948,-0.58063 0.12236,1.77162 c 0.0673,0.97438 -0.21586,3.09814 -0.62923,4.71946 l -0.75159,2.94784 -0.97604,-1.44784 -0.97604,-1.44785 0.24765,2 c 0.1362,1.1 -0.0772,3.2375 -0.47431,4.75 l -0.72194,2.75 h -1.48095 -1.48095 v 1.55902 1.55901 l 0.90674,-0.56039 0.90674,-0.5604 -0.52043,1.99013 -0.52043,1.99014 -0.76131,-0.47052 -0.76131,-0.47052 v 2.5149 2.5149 l -1.72296,1.90385 -1.72296,1.90385 0.54678,0.88472 0.54678,0.88471 -1.44882,2.79261 c -0.79685,1.53593 -1.44882,3.38402 -1.44882,4.10687 0,0.72284 -0.5625,1.90891 -1.25,2.63569 -0.6875,0.72679 -1.25,1.99643 -1.25,2.82143 v 1.5 l -1.37451,-0.2915 -1.37451,-0.29151 0.48584,2.54151 0.48584,2.5415 h -0.73633 -0.73633 v 2.67201 2.67202 l -1.75043,1.27994 -1.75042,1.27994 0.60463,1.57564 0.60463,1.57564 -1.89139,1.61946 -1.89139,1.61945 0.57466,1.49756 0.57467,1.49756 -1.83948,1.34506 -1.83948,1.34506 0.60934,0.60934 0.60935,0.60934 -2.03331,3.90099 c -2.08709,4.00415 -3.28339,5.24248 -2.10964,2.18375 l 0.65897,-1.71725 -1.59007,1.46725 -1.59007,1.46724 0.94739,1.1599 0.94738,1.15991 -2.27017,1.59009 -2.27018,1.5901 h 0.96229 0.96228 l -2.69613,2.5 c -1.48288,1.375 -3.16578,2.5 -3.73979,2.5 -0.574,0 -0.99035,0.3375 -0.92522,0.75 0.0651,0.4125 0.0651,1.1426 0,1.62244 l -0.11842,0.87245 -1.5889,-1.31867 -1.58889,-1.31867 0.33889,1.63065 0.3389,1.63065 -0.70695,-0.18443 c -0.38883,-0.10143 -1.28883,0.60834 -2,1.57726 l -1.29305,1.76168 -2.35203,0.45055 c -1.29361,0.2478 -2.86861,0.85423 -3.5,1.34761 -0.63138,0.49338 -2.59302,1.17064 -4.3592,1.50501 l -3.21122,0.60796 -0.44302,-0.71724 -0.44302,-0.71725 -5.34575,0.3803 -5.34576,0.3803 2,0.78221 2,0.78221 -6.993,-0.0642 -6.993,-0.0642 z m -8.81767,-27.66861 -0.45733,-1.75 v 3.5 3.5 l 0.45733,-1.75 c 0.25152,-0.9625 0.25152,-2.5375 0,-3.5 z m 26.69223,-57.80194 0.59553,-1.55194 -0.98854,0.61096 c -0.5437,0.33602 -0.98855,1.0344 -0.98855,1.55194 0,1.43843 0.71677,1.12146 1.38156,-0.61096 z m 8.30155,-66.63556 -0.52522,-1.3125 -0.0789,1.91667 -0.0789,1.91666 0.60417,-0.60416 0.60416,-0.60417 z m -203.68311,98.44864 -5.5,-0.46622 2,-0.91577 2,-0.91577 -3.69082,0.44584 -3.69083,0.44583 -0.30917,-0.79534 c -0.17005,-0.43744 -1.37803,-1.12803 -2.68441,-1.53466 l -2.37523,-0.73932 0.74591,1.2069 0.7459,1.20691 -2.37067,-1.32384 c -1.30388,-0.72811 -3.49568,-1.42845 -4.87068,-1.55632 l -2.5,-0.23247 -1.75,-2.15424 -1.75,-2.15424 v 1.1698 1.1698 l -1.01631,-0.62811 -1.01631,-0.62812 0.6555,-1.06063 0.65551,-1.06063 -1.38919,0.4946 -1.3892,0.4946 -1.82756,-0.94156 -1.82756,-0.94156 0.60045,-1.56476 0.60045,-1.56475 -1.39021,1.15378 -1.39021,1.15377 -1.12401,-1.35434 -1.124,-1.35434 0.74133,-0.81831 0.74132,-0.81832 -1.08749,0.61891 -1.0875,0.61891 -3.86545,-3.95859 -3.86546,-3.95858 h 0.89408 0.89408 l -1.94113,-1.4682 -1.94113,-1.46819 0.94113,-0.0318 0.94113,-0.0318 -1.74694,-1.2774 c -0.96082,-0.70256 -1.86182,-1.94006 -2.00222,-2.75 -0.1404,-0.80993 -0.59768,-2.49163 -1.01618,-3.73712 l -0.76091,-2.26452 -0.83059,0.51333 -0.8306,0.51334 -1.05521,-3.02699 -1.05522,-3.02699 0.58323,-1.51987 0.58323,-1.51987 -1.74834,-1.27842 -1.74835,-1.27842 0.002,-13.42354 c 9.7e-4,-7.38294 0.22386,-14.54853 0.4953,-15.92353 0.27144,-1.375 0.55785,-2.95 0.63647,-3.5 l 0.14294,-1 1.02794,1.5 1.02795,1.5 -0.19235,-3 c -0.10579,-1.65 0.14774,-4.23439 0.56341,-5.74309 l 0.75577,-2.74309 0.88187,0.54503 0.88187,0.54503 -0.5923,-1.54351 -0.5923,-1.54351 1.49154,-0.57236 1.49154,-0.57236 0.61916,-3.09579 0.61916,-3.09579 0.6121,0.6121 0.61211,0.6121 1.44471,-1.44471 1.44471,-1.44471 -0.49701,-0.80416 -0.497,-0.80417 5.3037,-5.16638 5.3037,-5.16639 0.62954,0.62955 0.62955,0.62954 v -1.22568 -1.22568 l 0.89522,0.55327 0.89521,0.55327 0.62832,-1.63738 0.62833,-1.63739 0.62758,0.62759 0.62759,0.62758 1.42303,-1.73445 1.42303,-1.73446 -0.63317,1.25 -0.63317,1.25 h 1.61803 1.61803 l -0.548,-0.88669 -0.54801,-0.8867 1.31747,-1.0934 c 0.72462,-0.60138 2.18216,-1.23687 3.23899,-1.41221 1.05684,-0.17533 2.95019,-0.88378 4.20746,-1.57431 l 2.28593,-1.25552 4.21407,-0.11689 c 2.31773,-0.0643 4.66406,-0.43941 5.21406,-0.83361 0.55,-0.3942 3.3625,-1.03434 6.25,-1.42254 l 5.25,-0.70581 0.0153,1.34384 0.0153,1.34384 0.86759,-1.36956 0.8676,-1.36957 5.86709,1.17353 c 3.2269,0.64543 8.11709,1.39253 10.86709,1.66021 l 5,0.48668 1.15778,1.52437 1.15778,1.52437 1.84222,-0.31502 1.84201,-0.31502 -0.27221,1.31662 -0.2722,1.31662 1.7722,-0.18177 c 0.97472,-0.1 2.36127,-0.12996 3.08123,-0.0666 l 1.30901,0.11515 -0.61095,0.98855 -0.61096,0.98854 1.55194,-0.59553 1.55194,-0.59556 v 1.10699 1.10699 h 1.53138 1.53139 l 0.5734,1.49426 0.5734,1.49425 0.78191,-0.48324 0.78191,-0.48325 1.3633,1.68095 1.36331,1.68095 -1.25,-0.75098 -1.25,-0.75097 v 1.61803 1.61803 l -1,-0.61803 -1,-0.61803 v 1.55901 1.55902 h -1.05902 -1.05901 l 0.45405,0.75 0.45406,0.75 -1.39504,1.28943 -1.39504,1.28942 -0.0997,-1.28942 -0.0997,-1.28943 -0.73885,2.5 -0.73884,2.5 -1.23581,-0.27478 -1.2358,-0.27477 0.6062,0.98084 0.60619,0.98085 -2.56307,1.67939 -2.56308,1.67939 0.52762,0.52761 0.52762,0.52762 -3.04591,1.85233 -3.04591,1.85233 0.53849,0.87129 0.53849,0.87129 -1.53137,1.27092 -1.53137,1.27093 -1.20762,-1.20762 c -0.66415,-0.66419 -1.20758,-1.63512 -1.20758,-2.15762 0,-0.5225 -0.225,-0.87396 -0.5,-0.78102 -0.275,0.0929 -1.625,-0.45362 -3,-1.21456 -2.71382,-1.50188 -3.12694,-1.63442 -5.75,-1.84473 l -1.75,-0.14032 1.28184,-0.81338 1.28184,-0.81338 -5.28184,-0.25299 c -2.90501,-0.13914 -6.18184,-0.22034 -7.28184,-0.18044 -1.1,0.0399 -3.125,0.0811 -4.5,0.0916 l -2.5,0.019 1.5,0.9748 1.5,0.9748 -2,0.1338 c -1.1,0.0736 -2.5113,0.0725 -3.13622,-0.002 l -1.13621,-0.13619 -0.5824,1.5177 -0.5824,1.51771 h -1.5904 -1.5904 l 0.55327,0.89522 0.55327,0.89521 -1.74425,0.76354 c -0.95934,0.41995 -2.08176,0.69211 -2.49426,0.60479 -0.4125,-0.0873 -0.70133,0.17874 -0.64185,0.59124 0.0595,0.4125 -0.21668,1.75744 -0.61369,2.98875 l -0.72184,2.23876 -0.88631,-0.54777 -0.88631,-0.54817 v 2 2 l -0.88664,0.54797 c -0.48765,0.30138 -1.18538,2.14045 -1.55052,4.0868 l -0.66389,3.53884 -0.69948,-0.43157 -0.69947,-0.43157 -0.0269,7.85175 -0.0269,7.85176 0.76155,-1.19798 0.76155,-1.19797 0.1338,2.5 c 0.0736,1.375 0.0459,3.12708 -0.0615,3.89352 -0.10741,0.76644 0.17678,1.66644 0.63152,2 0.45473,0.33356 2.49707,2.6862 4.53852,5.22808 l 3.71174,4.6216 -0.68125,0.68125 -0.68126,0.68126 1.76041,-0.67554 1.76042,-0.67553 -0.2909,1.32722 -0.29089,1.32723 1.5,0.0909 1.5,0.0909 -0.29089,1.32723 -0.2909,1.32722 1.44313,-0.55378 1.44313,-0.55378 0.6811,0.6811 c 0.72358,0.72358 1.30403,0.85762 4.57345,1.0561 l 2.05901,0.125 -0.46892,0.75874 -0.46893,0.75874 8.0205,0.11862 8.0205,0.11863 -1.36059,-0.86205 -1.36059,-0.86205 1.75,-0.16532 c 0.9625,-0.0909 2.3125,-0.21031 3,-0.26531 0.6875,-0.055 1.475,-0.325 1.75,-0.6 0.275,-0.275 1.37388,-1.175 2.44196,-2 l 1.94196,-1.5 -0.76613,1.5 c -0.42138,0.825 0.21742,0.24514 1.41955,-1.28858 l 2.18568,-2.78858 3.44328,3.54542 3.44327,3.54543 -0.5711,0.92406 -0.57109,0.92405 1.17082,0.72361 1.17082,0.72361 -0.84647,-1.40451 -0.84647,-1.40451 1.63252,1.32311 1.63252,1.32312 -0.54222,1.41298 -0.54221,1.41299 2.7034,1.02782 2.70331,1.0278 -0.57027,1.4861 -0.57027,1.4861 h 1.04004 c 1.1787,0 3.89719,2.48909 3.89719,3.56833 0,0.39115 0.7875,1.293 1.75,2.00411 l 1.75,1.29292 -1,0.99589 c -0.55,0.54774 -1.66408,1.14054 -2.47572,1.31732 -0.81165,0.17679 -2.31018,1.33822 -3.33008,2.58096 l -1.85435,2.25953 -0.85083,-0.52584 -0.85082,-0.52584 -0.60113,0.97263 -0.60112,0.97264 -1.63202,-0.62626 -1.63202,-0.62627 0.6583,1.06516 0.6583,1.06515 -1.6643,0.63865 -1.66431,0.63866 -0.81464,-1.28387 -0.81463,-1.28387 -0.0153,1.21482 -0.0153,1.21481 -2.12068,1.13495 -2.12067,1.13496 0.67969,-1.09977 0.67966,-1.09977 h -1.13044 c -0.62175,0 -1.86571,0.73527 -2.76438,1.63393 l -1.63392,1.63393 -0.34259,-1.02777 -0.34259,-1.02777 -1.94081,0.50753 -1.94081,0.50753 0.54777,0.88631 0.54777,0.88631 h -3.41944 c -1.8807,0 -5.39475,0.16366 -7.80902,0.36368 -2.41426,0.20003 -6.86457,0.15388 -9.88957,-0.10254 z m 17.72917,-25.86531 -0.60417,-0.60416 -1.3125,0.52522 -1.3125,0.52522 1.91667,0.0789 1.91666,0.0789 z m 17.27083,-7.77339 c 0,-0.20765 -0.7875,-0.99515 -1.75,-1.75 l -1.75,-1.37244 1.37244,1.75 c 1.30637,1.66575 2.12756,2.19548 2.12756,1.37244 z m -48.61844,-5.17438 0.59553,-1.55194 -0.98854,0.61096 c -0.5437,0.33602 -0.98855,1.0344 -0.98855,1.55194 0,1.43843 0.71677,1.12146 1.38156,-0.61096 z m 43.34761,-82.05223 -0.60417,-0.60416 -1.3125,0.52522 -1.3125,0.52522 1.91667,0.0789 1.91666,0.0789 z m 457.00601,118.60223 -3.7352,-2.00195 v 1.15694 1.15693 l -1.75,-1.58373 c -1.7125,-1.54983 -2.1529,-1.72625 -4.309,-1.72625 h -1.059 l 0.5677,-0.91863 0.5677,-0.91863 -2.905,-0.63805 -2.905,-0.63805 -1.8021,-1.9913 c -0.9912,-1.09521 -1.9079,-2.71215 -2.0372,-3.59321 -0.1293,-0.88105 -0.809,-1.95657 -1.5103,-2.39003 l -1.2752,-0.78812 -0.1376,-2.57492 c -0.076,-1.4162 -0.5034,-2.9066 -0.9506,-3.31199 l -0.8131,-0.73707 0.7186,2 0.7186,2 -1.17,-1.16072 -1.1699,-1.16072 0.1,-6.64145 0.1,-6.64144 -1.0306,0.63689 -1.0305,0.63688 0.1289,-28.6271 0.1289,-28.62709 -1.2727,-1.53346 -1.2726,-1.53345 -8.0647,0.32583 -8.0645,0.32583 -0.2782,-13.75 -0.2782,-13.75 h 8.9692 8.9692 l 0.6571,-1.06322 0.6571,-1.06321 -0.1405,-13.93679 -0.1404,-13.93678 1.7924,-0.0717 c 0.9857,-0.0394 8.1799,-0.0102 15.9869,0.0648 l 14.1946,0.13648 2.0329,-1.08796 2.0329,-1.08796 -0.6474,1.68719 -0.6475,1.68718 1.17,-0.72306 1.1699,-0.723 v 15.05901 15.05902 h 13.5373 13.5373 l -0.2455,12.56963 -0.2454,12.56963 -0.8986,0.55537 -0.8986,0.55537 1.0141,0.625 1.0141,0.625 -13.7649,-0.22995 -13.7648,-0.22994 0.4358,2.72994 0.4358,2.72995 -1.0098,-1.44819 -1.0098,-1.4482 0.1361,22.9482 0.1361,22.94819 0.5985,-21 0.5985,-21 0.1421,25 c 0.078,13.75 0.1667,25.58906 0.1969,26.30902 l 0.055,1.30901 1,-0.61803 1,-0.61803 0.1184,1.30901 c 0.065,0.71996 0.028,1.75902 -0.083,2.30902 l -0.2018,1 0.7414,-0.74132 0.7413,-0.74133 1.331,1.10463 1.331,1.10463 -0.6142,0.99383 -0.6142,0.99383 2.2504,-0.71427 2.2505,-0.71427 -0.5765,0.9327 -0.5764,0.9327 6.2012,-0.2065 c 3.4107,-0.11358 7.4387,-0.53754 8.9512,-0.94214 l 2.75,-0.73564 v 13.67559 13.67559 l -1,-0.61803 -1,-0.61803 v 1.05901 1.05902 h -1.059 -1.059 l 0.618,-1 0.618,-1 h -0.6304 c -0.3468,0 -1.273,0.64252 -2.0583,1.42782 l -1.4278,1.42783 -5.7508,-0.37863 -5.7507,-0.37863 3.5,0.81916 3.5,0.81917 -10.5148,0.13164 -10.5148,0.13164 z m 10.5285,0.29801 c -1.2299,-0.23736 -3.4799,-0.24351 -5,-0.0136 l -2.7637,0.41792 5,0.0136 5,0.0136 z m -54.5236,-113.00956 -0.3619,-5.78651 v 11 11 l 0.366,-5.21349 c 0.2013,-2.86742 0.2031,-7.81742 0,-11 z m 52.9983,-25.50299 -0.3684,-5.28352 v 10 l -0.01,10 0.3731,-4.71648 c 0.2053,-2.59406 0.2074,-7.09406 0.01,-10 z m -0.055,-7.97102 -0.5252,-1.3125 -0.079,1.91667 -0.079,1.91666 0.6041,-0.60416 0.6042,-0.60417 z m -686.67539,145.4375 c 0.004,-0.4125 -0.10828,-26.85 -0.25,-58.75 l -0.25769,-58 h 18.21255 18.21255 l 0.28745,7.40751 0.28745,7.4075 1.79148,0.2601 1.79148,0.2601 0.59053,-2.95268 0.59054,-2.95268 4.04798,-3.46493 4.04799,-3.46492 h 1.71301 1.71301 l 0.60207,-1.56895 0.60206,-1.56895 2.13015,0.67608 2.13016,0.67609 -0.63975,-1.03514 -0.63975,-1.03514 1.99882,-0.6344 1.99883,-0.6344 13.0955,-0.0369 13.09551,-0.0369 2.58144,2.34934 2.58144,2.34934 -0.71319,-1.23855 -0.71319,-1.23854 1.55194,0.59553 1.55194,0.59554 v 1.05968 1.05967 l 0.60495,-0.60494 0.60495,-0.60495 2.39505,2.5843 c 1.31728,1.42137 2.39505,2.27776 2.39505,1.9031 v -0.68121 l 1.96276,1.05044 1.96276,1.05044 -0.58544,1.52564 -0.58544,1.52564 1.21574,-0.2909 1.21574,-0.29089 1.15694,1.95777 c 0.63632,1.07677 1.75269,2.60466 2.48083,3.39532 l 1.32389,1.43754 -1.20899,0.7472 -1.20899,0.7472 2.09786,1.12274 2.09786,1.12274 -0.53093,1.38359 -0.53094,1.3836 0.9743,0.60215 0.97429,0.60214 -0.56364,2.15538 -0.56365,2.15537 1.30252,-0.80499 1.30251,-0.805 -0.50053,2.61836 -0.50054,2.61837 0.64862,-0.40087 0.64861,-0.40087 0.28633,41.93113 0.28633,41.93113 -1.3294,0.0153 -1.3294,0.0153 1.5,0.96937 1.5,0.96937 -17.30902,0.0153 -17.30901,0.0153 0.61803,-1 0.61803,-1 h -0.97568 c -0.53663,0 -1.20266,0.5625 -1.48007,1.25 l -0.50439,1.25 -0.22974,-37 c -0.12636,-20.35 -0.12663,-38.28585 -5.9e-4,-39.85745 l 0.22916,-2.85744 -0.98095,0.60626 -0.98095,0.60626 -1.10939,-3.1824 -1.10938,-3.18239 1.26197,-0.91075 1.26198,-0.91075 -1.67689,0.53489 -1.67688,0.53489 -1.06444,-1.28257 -1.06444,-1.28257 0.71085,-0.71084 0.71084,-0.71085 -1.71952,0.65985 -1.71952,0.65983 v -1.51337 -1.51337 l -2.25,0.49313 -2.25,0.49312 1.22835,-0.88238 1.22834,-0.88238 -6.72834,0.0456 -6.72835,0.0457 -0.5,0.65005 c -0.275,0.35753 -1.36859,0.80753 -2.4302,1 l -1.93019,0.34995 -2.5897,2.5 c -1.42434,1.375 -3.682,4.3 -5.01702,6.5 -1.33503,2.2 -2.67607,4.225 -2.9801,4.5 -1.28959,1.16645 -1.47919,5.25692 -1.84241,39.75 l -0.38173,36.25 h -18.41432 -18.41433 z m 5.72148,-0.85417 -0.60417,-0.60416 -1.3125,0.52522 -1.3125,0.52522 1.91667,0.0789 1.91666,0.0789 z m 80,0 -0.60417,-0.60416 -1.3125,0.52522 -1.3125,0.52522 1.91667,0.0789 1.91666,0.0789 z m 22.53986,-0.0518 c -0.67703,-0.27392 -2.02703,-0.29059 -3,-0.0371 l -1.76903,0.46107 3,0.0371 3,0.0371 z m -27.52153,-48.15584 -0.30525,-14.68819 8.1e-4,30 8.2e-4,30 0.30444,-15.31181 c 0.16744,-8.42149 0.16707,-21.92149 -8.2e-4,-30 z m -44.06439,-19.37569 -0.52522,-1.3125 -0.0789,1.91667 -0.0789,1.91666 0.60417,-0.60416 0.60416,-0.60417 z m 4.34986,-11.3125 1.46703,-2 -1.75,1.37244 c -0.9625,0.75485 -1.75,1.84235 -1.75,2.41667 0,0.57432 0.12734,0.85672 0.28297,0.62756 0.15563,-0.22917 0.94313,-1.31667 1.75,-2.41667 z m 46.6962,-38.10417 -0.60417,-0.60416 -1.3125,0.52522 -1.3125,0.52522 1.91667,0.0789 1.91666,0.0789 z M 67.6482,565.87668 C 67.47178,560.76284 67.23685,398.36694 67.40661,398.87666 l 0.24978,0.75002 56.00023,-0.26645 56.00021,-0.26644 v 15.51644 15.51645 l -37.25,0.11842 c -20.4875,0.0651 -37.5784,0.0682 -37.97976,0.007 l -0.72975,-0.11167 0.0135,16.98267 0.0135,16.98266 2.21626,0.54665 2.21626,0.54665 33.29421,-0.28606 33.29421,-0.28607 0.49428,2 c 0.27186,1.1 0.36447,7.85 0.2058,15 l -0.28849,13 -34.41571,0.21571 -34.41572,0.21571 -1.07799,1.07799 -1.07798,1.07798 -0.006,17.20631 -0.006,17.20605 1.1568,1.22823 1.1568,1.22823 36.84321,0.007 c 20.26376,0.004 37.42942,0.0139 38.14591,0.0218 l 1.30271,0.0144 -0.30271,13.90676 -0.30271,13.90677 0.75,-0.46578 0.75,-0.46578 v 1 c 0,0.55 -0.49804,1.3078 -1.10676,1.68401 l -1.10677,0.68402 1.35677,0.85969 1.35676,0.85968 -58.25,0.0153 c -32.03751,0.009 -58.25389,-0.0968 -58.25863,-0.23433 z m 2.00862,-1.19098 c 0,-0.24254 -0.45,-0.7191 -1,-1.05902 l -1,-0.61803 v 1.05901 1.05902 h 1 c 0.55,0 1,-0.19844 1,-0.44098 z m 399.09969,-57.80902 0.0997,-59.25 0.80064,2.5 0.80064,2.5 0.0997,-2.25 0.0997,-2.25 16.75,6.7e-4 16.75,6.8e-4 v 8.49925 8.49925 l 1.58948,7e-5 1.58949,8e-5 1.13908,-2.5 1.13907,-2.5 h 1.4075 1.4075 l 1.67187,-3.52321 1.67187,-3.52322 0.83729,0.51747 0.83728,0.51747 0.59772,-1.55764 0.59772,-1.55763 1.035,0.63966 1.035,0.63967 2.04825,-2.32629 c 1.12654,-1.27945 1.7656,-1.76893 1.42013,-1.08773 l -0.62813,1.23854 1.5462,-0.59333 1.54619,-0.59333 -0.6583,-1.06515 -0.6583,-1.06516 1.66405,0.63856 1.66404,0.63855 v -0.98767 -0.98766 l 2.39091,0.60008 2.3909,0.60007 0.66811,-1.08102 0.66811,-1.08103 6.19099,0.0789 6.19098,0.0789 -1.19991,0.4877 -1.19992,0.48769 0.86602,2.27779 0.86601,2.27779 -0.56379,8.22562 -0.5638,8.22561 -0.91699,-1.32005 -0.917,-1.32004 0.38304,6.31282 0.38305,6.31282 -2.31836,-0.58187 -2.31835,-0.58178 v 0.96138 0.96139 l -5.75,0.0298 c -3.1625,0.0164 -6.75952,0.0901 -7.99338,0.16386 l -2.24339,0.13405 0.50791,0.8218 0.5079,0.82181 -2.26452,0.77284 c -2.62396,0.89551 -3.33457,1.07508 -4.93119,1.24615 l -1.16666,0.125 0.63384,0.63384 0.63384,0.63384 -3.96718,4.50695 -3.96717,4.50697 v 1.41823 1.41822 l -0.98855,-0.61095 -0.98854,-0.61096 0.59553,1.55194 0.59554,1.55194 h -1.0952 -1.0952 l 0.14665,1.75 c 0.0807,0.9625 0.0754,16.4875 -0.0118,34.5 l -0.15843,32.75 h -19 -19 z m 36.6473,14.94021 -0.31024,-13.19021 9.8e-4,27 9.7e-4,27 0.30926,-13.80979 c 0.1701,-7.59538 0.16966,-19.74538 -9.7e-4,-27 z m 4.71869,-31.54035 c -0.56346,-0.59314 -2.46567,0.91014 -2.46567,1.94858 v 0.98041 l 1.39914,-1.28942 c 0.76953,-0.70919 1.24947,-1.44699 1.06653,-1.63957 z m 4.53433,-4.64986 1.24489,-1.5 h -1.01546 c -0.5585,0 -1.27447,0.675 -1.59106,1.5 -0.31658,0.825 -0.41982,1.5 -0.22943,1.5 0.19039,0 0.90637,-0.675 1.59106,-1.5 z m 229.99998,70.44098 v -1.05901 l 1,0.61803 c 0.55,0.33992 1,0.81648 1,1.05902 0,0.24254 -0.45,0.44098 -1,0.44098 h -1 z M 96.90682,397.37734 c 15.2625,-0.15526 40.23751,-0.15526 55.50001,0 l 27.75,0.28229 h -55.5 -55.50001 z M 236.33856,370.6444 c -1.55004,-0.80847 -3.57504,-1.4094 -4.5,-1.33539 -0.92495,0.074 -2.58173,0.0564 -3.68173,-0.0392 l -2,-0.17376 1.46048,-0.92378 1.46048,-0.92379 -2.96529,0.0843 c -1.63091,0.0464 -3.98216,-0.23844 -5.225,-0.6329 l -2.25971,-0.7172 0.44524,-0.72042 0.44524,-0.72042 -2.1614,-0.16281 -2.16139,-0.16282 -1.1182,-1.52922 -1.1182,-1.52923 -0.55113,0.55112 -0.55112,0.55112 -3.80844,-3.80844 c -2.09465,-2.09464 -3.40327,-3.13714 -2.90804,-2.31667 l 0.9004,1.49178 -1.68095,-1.36331 -1.68095,-1.3633 0.6435,-1.04121 0.6435,-1.0412 -1.02086,0.63093 -1.02087,0.63093 -1.88364,-2.14832 -1.88365,-2.14831 1.23855,0.72383 1.23854,0.72384 -0.59333,-1.5462 -0.59333,-1.54619 -0.82679,0.51098 -0.8268,0.51099 -1.49298,-2.13153 -1.49298,-2.13153 0.49273,-1.28405 0.49274,-1.28405 -1.22268,-0.75566 -1.22269,-0.75566 0.71353,1.15451 c 0.39244,0.63498 0.46427,1.15451 0.15963,1.15451 -0.60655,0 -4.55909,-8.0673 -4.98914,-10.18305 -0.14723,-0.72432 -0.79488,-2.60491 -1.43922,-4.17908 l -1.17154,-2.86212 -0.0821,-12.63788 c -0.0451,-6.95083 -0.0371,-14.29323 0.0179,-16.31644 l 0.0999,-3.67857 1.59713,-1.59713 1.59712,-1.59713 -0.56574,-1.4743 -0.56568,-1.47429 h 1.02763 1.02763 l -0.65697,-1.06301 -0.65698,-1.06302 1.5267,-1.68698 c 1.48035,-1.63577 1.66922,-2.10598 1.66922,-4.15561 v -0.96861 l 1.5,0.5756 1.5,0.57561 0.11848,-1.85699 c 0.0652,-1.02135 0.0454,-2.41949 -0.0438,-3.10699 l -0.16235,-1.25 h 0.9272 0.92721 l 0.54932,-2.10062 0.54932,-2.10061 1.22182,0.75512 1.22182,0.75513 -0.62369,-1.00915 -0.62369,-1.00915 2.29337,-2.15451 2.29336,-2.1545 0.83614,0.75914 0.83614,0.75915 -0.6091,-1.07162 -0.6091,-1.07162 1.94878,-1.66859 c 1.07182,-0.91773 1.94877,-1.36199 1.94877,-0.98725 0,0.37474 0.70837,-0.19217 1.57416,-1.25979 0.86578,-1.06762 1.28923,-1.37863 0.94098,-0.69113 -1.04185,2.05679 0.15031,1.4307 3.32966,-1.74865 l 2.99866,-2.99865 1.74231,0.66859 1.74232,0.66859 -0.6583,-1.06516 -0.6583,-1.06515 1.57604,-0.60479 c 2.36608,-0.90795 3.10783,-0.7004 1.41247,0.39522 l -1.5,0.96937 1.75,0.0153 1.75,0.0153 v -1.475 -1.475 l 3.25,0.55919 3.25,0.55919 -1.5,-1.06888 -1.5,-1.06887 1,-0.0986 c 0.55,-0.0543 2.125,-0.30808 3.5,-0.56405 1.375,-0.25597 3.50952,-0.49126 4.74338,-0.52286 l 2.24339,-0.0575 -0.5524,-0.8938 -0.5524,-0.8938 h 9.90979 9.90979 l 3.14923,1.09783 3.14922,1.0978 v 0.90218 0.90217 h 1.55902 1.55901 l -0.56039,-0.90674 -0.5604,-0.90674 1.99013,0.52043 1.99014,0.52043 -0.64513,1.04383 -0.64512,1.04384 2.21754,-0.5799 2.21754,-0.5799 0.54582,1.42237 c 0.3002,0.78231 0.97423,1.42238 1.49785,1.42238 h 0.95202 l -0.63317,-1.25 c -0.34825,-0.6875 0.0946,-0.35 0.98403,0.75 0.88946,1.1 1.82283,1.8875 2.07416,1.75 0.25132,-0.1375 0.93351,-0.25 1.51597,-0.25 h 1.05901 l -0.61803,1 -0.61803,1 h 1.48758 c 0.81818,0 2.19474,0.70714 3.05902,1.57143 0.86429,0.86428 1.57143,1.24454 1.57143,0.84501 0,-0.39953 0.88939,0.0785 1.97642,1.06222 l 1.97642,1.78863 -0.63093,1.02087 -0.63093,1.02086 1.02086,-0.63093 1.02087,-0.63093 1.88364,2.20919 1.88365,2.20918 -2,-1.37965 -2,-1.37965 3.08847,2.89688 3.08848,2.89689 -0.42181,1.25 -0.42181,1.25 h 1.66667 1.66667 l -0.42111,1.25 -0.4211,1.25 1.49419,1.10096 1.49419,1.10096 -0.0955,3.35952 -0.0955,3.35952 0.92379,-1.46048 0.92378,-1.46048 0.1338,2 c 0.0736,1.1 0.0608,2.5625 -0.0285,3.25 l -0.16232,1.25 h 1.06289 1.06288 l -0.59993,2.75 -0.59994,2.75 0.95252,-1.35131 0.95251,-1.35131 0.37837,2.85131 c 0.2081,1.56822 0.22618,7.90896 0.0402,14.09053 l -0.33819,11.23921 -42.16181,0.26079 -42.16189,0.26078 0.0741,2.20028 0.0741,2.20028 -0.82406,-0.5093 -0.82414,-0.50929 v 1.5904 1.5904 l 1.49426,0.5734 1.49425,0.5734 -0.55327,0.89521 -0.55327,0.89522 h 1.05901 1.05902 v 1.25945 1.25946 l 2,1.24902 2,1.24902 v 1.49152 1.49153 h 1.81989 1.81989 l 3.36022,3 c 3.38094,3.0185 4.56767,3.72753 3.58928,2.14446 l -0.52876,-0.85555 2.56169,0.4897 2.56169,0.4897 -1.34195,0.86151 -1.34195,0.8615 4,-0.0448 c 2.2,-0.0246 5.125,-0.0988 6.5,-0.16482 1.375,-0.066 4.3,-0.0995 6.5,-0.0745 l 4,0.0456 -1.39117,-0.5068 -1.39116,-0.5068 3.89116,-1.43286 c 2.14015,-0.78807 4.79117,-1.51689 5.89117,-1.61961 l 2,-0.18675 v -1.40467 -1.40467 l 1.89989,-0.27885 1.8999,-0.27884 0.78412,-1.26874 c 0.43127,-0.69781 0.58148,-1.59663 0.3338,-1.99739 l -0.45033,-0.72864 0.97824,-0.60459 0.97824,-0.60459 5.57661,3.70266 5.5766,3.70265 -1.12238,0.69367 -1.12238,0.69367 1.58384,0.60778 1.58385,0.60778 0.0222,-1.21861 0.0222,-1.21862 1.92431,2.5 1.92431,2.5 1.30346,0.13465 c 0.7169,0.0741 1.89251,0.18656 2.61247,0.25 l 1.30901,0.11535 -0.63334,1.02478 -0.63335,1.02477 0.82433,-0.14319 c 0.45338,-0.0788 1.38179,-0.0899 2.06313,-0.0248 l 1.2388,0.11842 -0.20781,2.51091 -0.20781,2.51091 -3.83967,3.73909 -3.83966,3.73909 0.71204,-2 0.71204,-2 -2.02548,2 c -1.11402,1.1 -1.86299,2.28651 -1.66438,2.63669 0.19861,0.35018 -0.30894,1.19278 -1.12788,1.87245 l -1.48892,1.23579 v -0.77743 -0.77744 l -1.75,1.50289 c -0.9625,0.82658 -2.38203,1.86586 -3.15451,2.30949 l -1.40451,0.80662 0.71353,-1.15451 0.71352,-1.15451 h -1.05901 -1.05902 v 1.39301 1.39301 l -1.64144,0.62988 -1.64145,0.62988 1.39145,-1.68661 1.39144,-1.68661 -2.25,1.1989 c -1.2375,0.6594 -2.25,1.60275 -2.25,2.09634 0,1.05501 -2.00297,1.75174 -7.5,2.60885 -2.2,0.34303 -4.675,0.98124 -5.5,1.41825 l -1.5,0.79455 -9,0.0138 -9,0.0138 2.5,-0.80888 2.5,-0.80889 -2.31574,-0.0997 c -1.27366,-0.0548 -3.18616,0.36615 -4.25,0.9355 l -1.93426,1.03529 v -1.03519 -1.03518 h -1.05902 -1.05901 l 0.61803,1 c 0.81064,1.31165 0.52859,1.26338 -2.81827,-0.48228 z m 26.04744,-0.12189 -0.60417,-0.60416 -1.3125,0.52522 -1.3125,0.52522 1.91667,0.0789 1.91666,0.079 z m 36.86584,-18.6286 1.90499,-2.23276 -1.59201,1.22409 c -0.8756,0.67325 -1.8131,1.00299 -2.08333,0.73276 -0.27023,-0.27022 -0.49133,0.18368 -0.49133,1.00868 0,1.91654 0.002,1.91595 2.26168,-0.73277 z m -70.32598,-34.42317 c -0.67703,-0.27392 -2.02703,-0.29059 -3,-0.0371 l -1.76903,0.46104 3,0.0371 3,0.0371 z m -40.5797,-23.09406 -0.45733,-1.75 v 3.5 3.5 l 0.45733,-1.75 c 0.25152,-0.9625 0.25152,-2.5375 0,-3.5 z m 85.09036,0.52854 0.60737,-2.27854 0.70679,2.5 0.70679,2.5 0.0997,-3.30902 0.0997,-3.30901 -1,0.61803 -1,0.61803 -0.11848,-1.80901 c -0.0652,-0.99496 -0.0351,-2.41668 0.0669,-3.15937 l 0.18536,-1.35035 -1.06688,0.65936 -1.06688,0.65937 -0.11535,-1.30901 c -0.0634,-0.71996 -0.2199,-1.75902 -0.34769,-2.30902 -0.12778,-0.55 -0.30087,-1.58906 -0.38465,-2.30902 l -0.15237,-1.30901 -0.8871,0.54825 -0.88709,0.54826 0.13709,-1.73876 0.1371,-1.73875 -2.14806,-0.30668 -2.14807,-0.30668 -0.50831,-1.9438 -0.50832,-1.94381 -1.34362,0.0153 -1.34362,0.0153 1.5,0.96937 1.5,0.96937 -1.20031,0.0153 c -0.66017,0.008 -1.56054,-0.62838 -2.00081,-1.41511 l -0.80051,-1.43042 -1.49918,0.0879 c -0.82456,0.0484 -3.52419,-0.0146 -5.99919,-0.13986 l -4.5,-0.22782 2,-0.85943 c 3.28774,-1.41279 0.31019,-1.07979 -4,0.44735 l -4,1.41723 -2.39915,-0.57813 -2.39916,-0.57814 0.64341,1.04106 0.64341,1.04106 -1.49425,0.5734 -1.49426,0.5734 -0.0333,-1.21861 -0.0333,-1.21862 -2.09896,2.5 -2.09896,2.5 -0.86777,-0.25 -0.86771,-0.2499 v 1.05902 1.05901 l -1.15451,-0.71352 -1.15451,-0.71353 0.67124,1.08609 0.67124,1.08609 -1.76673,1.31842 c -0.9717,0.72513 -1.91137,1.99342 -2.08816,2.81842 -0.17678,0.825 -0.76594,1.95 -1.30924,2.5 l -0.98782,1 0.72918,-1.91404 0.72919,-1.91405 -1.17361,0.72533 -1.17361,0.72533 0.64951,2.58787 0.64952,2.58787 -1.13439,-0.70109 -1.13439,-0.7011 0.60983,1.58919 0.60982,1.58918 -1.62346,1.79391 -1.62346,1.7939 0.60824,0.60825 0.60825,0.60824 26.48009,0.0892 26.48009,0.0892 z m 26.90342,-16.96604 -0.52522,-1.3125 -0.0789,1.91667 -0.079,1.91666 0.60417,-0.60416 0.60416,-0.60417 z m -55.41408,-29.46844 c -0.67703,-0.27392 -2.02703,-0.29059 -3,-0.0371 l -1.76903,0.46104 3,0.0371 3,0.0371 z m 14,0 c -0.67703,-0.27392 -2.02703,-0.29059 -3,-0.0371 l -1.76903,0.46104 3,0.0371 3,0.0371 z m 107.16345,122.2418 c -1.68714,-0.73472 -4.16214,-1.34686 -5.5,-1.3603 l -2.43248,-0.0244 -4.5,-1.98148 c -2.475,-1.08981 -5.625,-2.97787 -7,-4.19568 l -2.5,-2.2142 0.31688,-1.50523 0.31688,-1.50523 -0.95749,0.59176 -0.9575,0.59177 -1.71311,-2.61454 -1.71311,-2.61454 1.10372,0.68214 1.10373,0.68214 v -1.05901 -1.05902 h -1.32681 -1.3268 l 0.39766,-3.25 0.39766,-3.25 -0.9386,1.34502 -0.9386,1.34502 -0.731,-2.84502 -0.73101,-2.84502 0.14427,-31.83715 0.14428,-31.83716 -0.96415,0.59588 -0.96416,0.59588 -0.69007,-3.14186 -0.69007,-3.14187 -0.7348,1.18893 -0.7348,1.18894 -8.1565,-0.19659 -8.1565,-0.19659 v -0.6592 c 0,-0.36257 0.54,-1.19921 1.2,-1.85921 l 1.2,-1.2 h -1.2 -1.2 v -9.98095 -9.98095 l 2.25,-0.48901 c 1.2375,-0.26896 5.175,-0.70358 8.75,-0.96581 3.575,-0.26223 6.95,-0.57511 7.5,-0.6953 l 1,-0.21851 -0.29775,-15.83474 -0.29774,-15.83473 h 18.54774 18.54775 l 0.0498,1.25 c 0.0274,0.6875 0.007,7.41021 -0.0464,14.93936 l -0.0961,13.68937 1.12821,1.81063 1.12821,1.81064 12.4654,-0.30784 12.46541,-0.30784 -0.15884,11.47282 -0.15883,11.47282 0.67058,1.08502 0.67058,1.08502 -10.30901,0.15753 c -5.66996,0.0866 -10.75902,0.15408 -11.30902,0.14986 -0.55,-0.004 -2.0125,-0.33043 -3.25,-0.72492 l -2.24999,-0.71729 v 2.06739 2.06739 h -0.77643 -0.77642 l 0.26246,3.75 c 0.14435,2.0625 0.46978,13.875 0.72318,26.25 0.25341,12.375 0.67219,23.625 0.93064,25 0.25845,1.375 0.5074,2.86406 0.55324,3.30902 l 0.0833,0.80901 0.88669,-0.548 0.8867,-0.54801 1.10463,1.331 1.10463,1.331 -0.74133,0.75306 -0.74132,0.75306 1.5,-0.21355 c 0.825,-0.11746 2.625,-0.15335 4,-0.0798 l 2.5,0.1338 -1.33267,0.84479 -1.33267,0.8448 7.33267,-0.008 7.33267,-0.008 -2.5,-0.75237 -2.5,-0.75237 2.75,-0.0997 2.75003,-0.0997 v 2.55902 2.55901 l 1,-0.61803 1,-0.61803 v 10.55901 10.55902 l -1.25,0.0153 -1.25,0.0153 1.5,0.96937 1.5,0.96937 -3,0.13067 c -3.81093,0.16598 -4.11323,0.22289 -9.39331,1.76833 l -4.39331,1.2859 -0.84138,-1.32714 -0.84137,-1.32713 -0.0153,1.18312 -0.0153,1.18311 -2.96557,-0.0843 -2.96557,-0.0843 0.52459,-0.8488 0.52458,-0.8488 -3.30901,0.0997 -3.30902,0.0997 2.5,0.80064 2.5,0.80064 -2.5,0.0605 -2.5,0.0605 z m -29.69898,-133.80943 -0.38409,-4.27643 -0.007,8 -0.007,8 0.39068,-3.72357 c 0.21488,-2.04796 0.21785,-5.64796 0.007,-8 z m -0.0504,-11.96393 -0.52522,-1.3125 -0.0789,1.91667 -0.079,1.91666 0.60417,-0.60416 0.60416,-0.60417 z m 148.8169,145.6543 -4,-1.44541 -1.20954,0.44239 -1.20954,0.4424 -4.54122,-1.54735 -4.54122,-1.54735 0.55978,-0.90574 0.55977,-0.90574 h -1.61803 -1.61803 l 0.61095,0.98855 0.61096,0.98854 -1.55194,-0.59553 c -0.85357,-0.32755 -1.55194,-1.04554 -1.55194,-1.59554 v -1 l -1.61134,0.61833 -1.61134,0.61833 0.57995,-1.51134 0.57996,-1.51134 h -0.96861 -0.96862 l -0.0318,1.25 -0.0318,1.25 -1.40166,-1.85014 -1.40166,-1.85014 -1.0564,0.6529 -1.05641,0.65289 -4.22401,-4.30275 c -2.32322,-2.36652 -3.58992,-3.40276 -2.81491,-2.30276 l 1.40911,2 -1.85933,-1.69981 -1.85932,-1.69981 1.2774,-1.53918 1.2774,-1.53918 1.1367,0.64932 1.13669,0.64931 -0.74132,-0.81832 -0.74133,-0.81831 1.06444,-1.28257 1.06444,-1.28257 1.67688,0.53489 1.67689,0.53489 -1.36803,-0.97629 -1.36804,-0.9763 2.11804,-2.11804 2.11803,-2.11803 h 1.5 1.5 v -1.81291 -1.81291 l 3.00527,-2.87922 c 1.65289,-1.58358 3.68004,-2.97827 4.50478,-3.09931 l 1.49951,-0.22009 1.33492,1.90586 1.33491,1.90586 0.5804,-0.58041 0.5804,-0.5804 1.69492,2.58677 1.69491,2.58676 h 1.38499 1.38499 v 0.96862 0.96861 l 1.5,-0.5756 1.5,-0.57561 v 1.21398 1.21398 l 1.4028,-0.53831 1.4028,-0.5383 1.8472,1.39951 c 1.01596,0.76973 2.21126,1.41382 2.65622,1.43132 l 0.80901,0.0318 -0.53199,-0.86078 -0.53199,-0.86079 3.72297,0.66635 3.72298,0.66634 3.14568,-0.65792 c 1.73013,-0.36186 4.77665,-0.61187 6.77004,-0.55557 l 3.62436,0.10237 -1.71117,-1.25 -1.71117,-1.25 1.44113,-0.11842 c 0.79262,-0.0651 1.81208,-0.054 2.26546,0.0248 l 0.82433,0.14319 -0.63335,-1.02477 -0.63334,-1.0248 h 1.11803 1.11803 l -0.57532,-0.9309 -0.57533,-0.9309 1.01631,-0.62812 1.01631,-0.62811 v -2.03662 -2.03661 l -1.97045,-2.76725 -1.97046,-2.76725 0.72046,-0.72045 0.72045,-0.72046 -1,0.25785 c -1.25359,0.32323 -6.76273,-2.21232 -7.69563,-3.54187 l -0.69562,-0.99139 -0.67342,0.67342 -0.67343,0.67342 -1.45238,-1.45238 c -0.79881,-0.79881 -1.89679,-1.45238 -2.43997,-1.45238 h -0.98758 l 0.66908,1.0826 0.66908,1.08259 -3.06041,-1.58259 -3.0604,-1.5826 -2.79966,-0.0136 c -1.53981,-0.008 -3.83761,-0.29165 -5.10622,-0.63143 l -2.30656,-0.61776 0.52518,-1.36858 0.52517,-1.36858 -0.71861,0.0153 c -0.39524,0.008 -1.35296,0.41688 -2.12827,0.90769 l -1.40966,0.89238 -3.29751,-1.57248 -3.29752,-1.57248 0.55752,-0.90209 0.55752,-0.90209 -1.85035,0.31688 -1.85035,0.31684 0.25,-1.25 0.25,-1.25 h -2 -2 v -1.55902 -1.55901 l -0.9495,0.58682 -0.94951,0.58683 -2.30049,-3.11159 c -1.26528,-1.71138 -2.0755,-3.25165 -1.8005,-3.42282 0.275,-0.17118 -0.3644,-1.26639 -1.42089,-2.4338 l -1.92089,-2.12256 -0.0567,-11.2384 -0.0567,-11.23839 1.72763,-2.46654 1.72763,-2.46653 0.0153,0.9725 0.0153,0.97251 0.96932,-1.5 c 0.53316,-0.825 0.97627,-1.86406 0.98469,-2.30902 l 0.0153,-0.80901 -1.25,0.75097 -1.25,0.75098 1.36331,-1.68095 1.3633,-1.68095 0.95358,0.58934 0.95357,0.58934 -0.31688,-1.3799 -0.31688,-1.37991 0.88545,0.0296 0.88544,0.0295 0.86722,-2.34432 0.86722,-2.34431 1.99734,-0.52232 c 1.09854,-0.28726 1.99734,-0.9057 1.99734,-1.37429 v -0.85198 l 1.54089,0.5913 1.5409,0.59129 -0.2909,-1.37268 -0.29089,-1.37268 1.73924,0.1371 1.73924,0.13709 -0.4835,-0.78231 -0.48349,-0.78231 1.54619,-0.59333 1.5462,-0.59333 -0.61096,0.98854 -0.61095,0.98855 h 0.95202 c 0.52362,0 1.19765,-0.64007 1.49785,-1.42238 l 0.54582,-1.42237 2.21754,0.5799 2.21754,0.5799 -0.66509,-1.07615 -0.6651,-1.07616 3.25872,-0.72951 3.25873,-0.7295 13,0.1881 c 7.15,0.10345 14.35,0.33709 16,0.51919 1.65,0.18209 3.81406,0.38911 4.80902,0.46003 l 1.80901,0.12895 -0.66832,1.08138 -0.66833,1.08137 1.85931,-0.19653 c 1.02262,-0.10809 2.83967,-0.14471 4.03788,-0.0814 l 2.17857,0.11515 1.32143,1.25 c 0.72679,0.6875 1.99643,1.25 2.82143,1.25 h 1.5 l -0.29089,1.37268 -0.2909,1.37268 1.39795,-0.53644 1.39794,-0.53644 2.49131,1.66376 2.49131,1.66376 -0.51098,1.5 -0.51098,1.5 1.51083,-1.24647 1.51083,-1.24647 1.65988,1.83416 1.65989,1.83415 -2.17999,1.91232 -2.17999,1.91231 0.8264,-1.40451 0.82641,-1.40451 -1.17082,0.72361 -1.17082,0.72361 0.48646,0.78711 0.48647,0.78712 -5.83885,5.60843 -5.83885,5.60842 -0.79163,-0.71464 -0.79163,-0.71464 0.64931,1.13669 0.64932,1.1367 -1.331,1.10463 -1.331,1.10463 -0.65799,-0.65799 -0.65799,-0.65796 -0.0153,1.41666 -0.0153,1.41667 -0.96937,-1.5 -0.96937,-1.5 -0.0153,1.30902 -0.0153,1.30901 -1.01631,-0.62811 -1.01631,-0.62812 0.59064,-0.95567 0.59064,-0.95568 -0.82433,0.27477 c -0.45338,0.15113 -0.90469,-0.11557 -1.0029,-0.59267 -0.18482,-0.89767 -5.85802,-4.63255 -7.03676,-4.63255 -0.36683,0 0.20655,0.66069 1.27417,1.4682 1.06762,0.8075 1.58214,1.4825 1.14338,1.5 -0.43876,0.0175 -1.96443,-1.2057 -3.39036,-2.7182 l -2.59262,-2.75 -0.42424,1.19382 -0.42425,1.19383 -1.42964,-0.54861 -1.42965,-0.54861 0.55327,-0.89521 0.55327,-0.89522 -7.80901,0.0153 -7.80902,0.0153 1.5,0.96937 1.5,0.96937 -2,0.15711 c -1.1,0.0864 -3.02732,0.18015 -4.28293,0.20831 l -2.28292,0.0512 0.46069,1.20055 0.46069,1.20054 -2.41528,2.26904 -2.41528,2.26904 1.00477,1.21066 1.00477,1.21067 -0.58543,1.5256 -0.58543,1.5256 1.08449,0.67025 1.08448,0.67025 -0.67082,1.08541 -0.67082,1.08541 1.22182,-0.75513 1.22182,-0.75512 0.54932,2.10061 0.54932,2.10062 h 0.94239 0.94238 l -0.56039,-0.90674 -0.5604,-0.90674 1.99013,0.52043 1.99014,0.52043 -0.58911,0.95319 -0.5891,0.95319 1.35035,-0.26722 c 0.74269,-0.14698 3.05036,0.0707 5.12814,0.48364 l 3.77779,0.75087 -0.64071,1.03669 -0.6407,1.03668 2.86291,-0.19317 c 1.57461,-0.10625 4.24057,-0.14549 5.92436,-0.0872 l 3.06144,0.10596 2.18856,2.03896 2.18856,2.03895 v -1.00757 -1.00757 l 1.6403,0.62944 1.6403,0.62944 -1.83143,1.33918 c -2.17238,1.58848 -1.53424,1.70221 2.00366,0.3571 l 2.58304,-0.98206 1.98206,1.98206 1.98207,1.9821 h 1.44098 c 0.79254,0 1.76207,0.51953 2.15451,1.15451 l 0.71353,1.15451 -1.15451,-0.71353 -1.15451,-0.71352 v 1.17564 1.17565 l 2.00138,-0.52337 2.00138,-0.52337 -0.5604,0.90674 -0.56039,0.90674 1.05901,0.125 c 0.58246,0.0688 1.47152,0.18125 1.97569,0.25 0.50416,0.0688 1.29166,0.53465 1.75,1.03533 l 0.83333,0.91032 -1.5,-0.73448 -1.5,-0.73448 1.56838,1.32415 c 0.86261,0.72829 2.19998,2.76412 2.97194,4.52407 l 1.40356,3.19991 0.85635,-1.19991 0.85635,-1.19991 -0.44624,2.78461 -0.44623,2.78461 0.55126,-0.55126 0.55127,-0.55126 1.31668,3.13146 1.31668,3.13146 v 5.81376 5.81376 l -1.49713,1.49713 -1.49712,1.49713 0.65321,1.70226 0.65322,1.70226 -2.40609,1.95882 -2.40609,1.95881 1.5,-0.77873 1.5,-0.77874 -1.24132,1.53397 -1.24133,1.53397 0.63445,0.63445 0.63446,0.63445 -1.64313,0.63053 -1.64313,0.63053 v 1.19684 1.19685 l -3.56133,3.44616 -3.56133,3.44617 0.62498,-2 0.62499,-2 -1.59559,2.75 -1.59559,2.75 -1.21807,0.11842 c -0.66993,0.0651 -1.60613,0.0483 -2.08043,-0.0375 -0.4743,-0.0857 -1.52017,0.64848 -2.32416,1.63158 l -1.46178,1.78746 0.63317,-1.25 0.63317,-1.25 h -0.74456 c -0.40951,0 -1.75807,0.95214 -2.9968,2.11586 l -2.25224,2.11587 -4.96156,0.13413 -4.96157,0.13414 0.45837,0.75 0.45836,0.75 -2.30901,0.18343 c -1.26996,0.10088 -4.44557,0.21338 -7.05691,0.25 l -4.7479,0.0666 -0.002,-0.75 -0.002,-0.74999 h -3.05902 -3.05901 l 0.61803,1 0.61803,1 -1.30901,-0.0439 c -0.71996,-0.0241 -3.10902,-0.69432 -5.30902,-1.4893 z m -19.53671,-33.7168 2.3394,-3.25 -3.15134,2.93709 c -3.33992,3.11284 -3.63543,3.56291 -2.33941,3.56291 0.44657,0 1.86468,-1.4625 3.15135,-3.25 z m 81.87564,-4.22409 -0.29075,-6.47409 -0.58479,0.72409 -0.5848,0.72409 0.40326,5.75 c 0.55265,7.88033 1.41691,7.28832 1.05708,-0.72409 z m -32.10976,-34.13008 -0.60417,-0.60416 -1.3125,0.52522 -1.3125,0.52522 1.91667,0.0789 1.91666,0.079 z m -13,-3 -0.60417,-0.60416 -1.3125,0.52522 -1.3125,0.52522 1.91667,0.0789 1.91666,0.079 z m 37.77083,-23.39583 c 0.99549,-1.1 1.58498,-2 1.30998,-2 -0.275,0 -1.31449,0.9 -2.30998,2 -0.99549,1.1 -1.58498,2 -1.30998,2 0.275,0 1.31449,-0.9 2.30998,-2 z m 2.5,-9.44098 c 0,-0.24254 -0.41891,-0.69988 -0.9309,-1.01631 l -0.9309,-0.57533 -0.62812,1.01631 -0.62811,1.01631 h 1.55901 c 0.85746,0 1.55902,-0.19844 1.55902,-0.44098 z m 77.39634,105.83407 -1.89634,-1.5414 1.40451,0.72866 1.40451,0.72867 -0.68654,-1.11084 -0.68653,-1.11083 -1.46798,0.56331 -1.46797,0.56332 -0.0153,-1.85699 c -0.008,-1.02135 -0.50087,-2.53199 -1.09434,-3.35699 l -1.07901,-1.5 0.58287,1.80194 0.58288,1.80194 -0.86784,-0.53636 c -0.47731,-0.29499 -1.10519,-1.44399 -1.39528,-2.55332 l -0.52745,-2.01696 1.07668,0.66543 1.07668,0.66542 -0.91994,-1.91405 -0.91995,-1.91404 -0.28377,-83.48873 -0.28376,-83.48872 1.6339,-1.19474 1.63391,-1.19474 -0.60282,-0.97538 -0.60283,-0.97539 3.11655,-2.6224 3.11655,-2.6224 1.88613,0.59864 1.88614,0.59864 v -1.06739 -1.06739 l 111.74998,0.0153 111.75,0.0153 -1.5,1.06887 -1.5,1.06888 3.25,-0.55919 3.25,-0.55916 v 1.36801 1.36801 l 1.6414,0.62988 1.6415,0.62988 -1.3612,-1.77289 -1.3612,-1.77289 2.7198,2.42431 c 2.6725,2.38227 3.6054,3.74111 1.8039,2.62775 l -0.9157,-0.56597 1.1243,2.97857 1.1242,2.97857 0.7049,-1.14051 0.7049,-1.14051 0.6303,4.4189 0.6302,4.41889 -0.3461,79.5 c -0.1904,43.725 -0.5743,80.97678 -0.8532,82.78173 l -0.507,3.28173 -2.3281,2.21827 -2.3282,2.21827 0.7769,-1.37973 0.7768,-1.37973 -1.3892,0.46306 -1.3892,0.46307 v 1.20314 c 0,0.66173 -0.675,1.63057 -1.5,2.15298 l -1.5,0.94983 -114.1037,-0.0191 -114.1036,-0.0191 z m 118.60364,-51.3257 v -0.93261 l 2.25,-0.76552 c 1.2375,-0.42103 2.5875,-0.67635 3,-0.56739 l 0.75,0.19813 v -1.44098 c 0,-0.79254 0.5195,-1.76207 1.1545,-2.15451 l 1.1545,-0.71353 -0.7135,1.15451 -0.7135,1.15451 h 1.0968 1.0969 l -0.1934,-2.25 c -0.1063,-1.2375 -0.1234,-7.97338 -0.038,-14.96862 l 0.1555,-12.71861 1.3988,0.53679 1.3989,0.53679 0.7557,-1.22268 0.7556,-1.22269 -1.4045,0.73961 c -0.7725,0.40678 0.058,-0.64235 1.8455,-2.3314 1.7875,-1.68905 3.25,-3.5539 3.25,-4.14411 v -1.07311 l 1.1699,0.72306 1.17,0.72306 -0.6386,-1.66405 -0.6385,-1.66404 h 0.9372 0.9372 l -0.6385,-1.66404 -0.6386,-1.66405 0.9398,0.58083 0.9398,0.58084 -0.8062,-7.66679 c -0.4434,-4.21673 -0.8863,-8.42125 -0.9841,-9.34337 l -0.178,-1.67658 -0.8526,0.52693 -0.8526,0.52693 0.3169,-1.85035 0.3169,-1.85035 -1.272,0.25732 -1.2719,0.25732 -0.8739,-2.29841 c -0.4806,-1.26414 -1.7082,-2.95493 -2.728,-3.75733 l -1.8542,-1.4589 1.4828,2 1.4827,2 -2.0615,-1.75 c -1.1338,-0.9625 -2.4986,-1.75 -3.0327,-1.75 -0.5342,0 -1.5339,-0.5625 -2.2214,-1.25 l -1.2501,-1.25 -6.9499,-0.0461 -6.9499,-0.046 v 0.90306 0.90306 l -1.5519,-0.59554 -1.552,-0.59553 0.611,0.98854 0.6109,0.98855 h -1.059 c -0.5824,0 -1.2942,-0.0102 -1.5817,-0.0227 -0.9039,-0.0393 -4.9627,4.36982 -7.6106,8.26741 l -2.544,3.74469 -0.5596,-0.55961 -0.5596,-0.5596 -0.1525,2.31492 c -0.2597,3.94299 -0.2437,12.73992 0.026,14.27093 l 0.2564,1.45601 0.8334,-0.51503 0.8333,-0.51502 0.1575,1.80901 c 0.087,0.99496 0.1375,2.36668 0.1129,3.04826 l -0.045,1.23924 0.954,-0.58959 0.954,-0.58959 -0.3169,1.3799 -0.3169,1.37991 0.645,-0.0296 c 0.3548,-0.0162 1.5817,0.81809 2.7265,1.8541 l 2.0814,1.88364 -0.5398,0.87342 -0.5398,0.87342 1.3134,0.50181 1.3133,0.50182 -0.3103,12.08741 -0.3103,12.08741 0.9883,-0.61081 0.9883,-0.61081 0.6398,2.01558 0.6397,2.01558 1.9603,1.04911 1.9603,1.04912 -0.6826,1.10433 -0.6825,1.10434 1.0072,-0.62248 1.0072,-0.62247 1.8973,1.43616 1.8973,1.43616 2.25,0.0318 2.25,0.0318 z m 10.7234,-29.31739 -0.4033,-3.25 v 6.5 6.5 l 0.4033,-3.25 c 0.2218,-1.7875 0.2218,-4.7125 0,-6.5 z m -33.7234,-36.86803 v -1 l -1,0.61803 c -0.55,0.33992 -1,1.06803 -1,1.61803 v 1 l 1,-0.61803 c 0.55,-0.33992 1,-1.06803 1,-1.61803 z m 3,-8.38197 v -1.5 h -0.9686 -0.9686 l 0.5756,1.5 c 0.3166,0.825 0.7524,1.5 0.9686,1.5 0.2161,0 0.393,-0.675 0.393,-1.5 z m -98.6257,-60.44444 c -0.23641,-0.24445 -1.42984,0.60787 -2.65206,1.89404 l -2.22222,2.3385 2.65206,-1.89405 c 1.45863,-1.04173 2.45863,-2.09405 2.22222,-2.33849 z M 67.65926,368.37668 c 10e-4,-0.4125 -0.0292,-38.325 -0.0677,-84.25 l -0.0702,-83.5 h 19.31775 19.31775 v 67.15461 67.1546 l 0.66459,-0.41083 0.66459,-0.41084 0.41314,1.23943 0.41315,1.23943 4.9389,-1.2658 4.9389,-1.2658 27.20827,0.23909 27.20828,0.2391 -1.22491,0.77819 -1.2249,0.77819 1,0.0179 1,0.0179 -0.0636,15.16896 -0.0636,15.16896 -1.93636,0.70385 -1.93636,0.70385 2.5,0.48842 2.5,0.48843 -52.75,0.13618 -52.75009,0.13618 z m 1.99756,-0.69098 c 0,-0.24254 -0.45,-0.7191 -1,-1.05902 l -1,-0.61803 v 1.05901 1.05902 h 1 c 0.55,0 1,-0.19844 1,-0.44098 z m 74.30195,-32.3034 c -5.05893,-0.18111 -13.60893,-0.1819 -19,-0.002 l -9.80194,0.32755 19,0.002 19,0.002 z M 68.3191,205.87668 l -0.50438,-1.25 v 2.5 2.5 l 0.50438,-1.25 c 0.27741,-0.6875 0.27741,-1.8125 0,-2.5 z m 329.49562,137.25 v -2.5 l 0.50439,1.25 c 0.27741,0.6875 0.27741,1.8125 0,2.5 l -0.50439,1.25 z m -62.73461,-32.5 0.001,-21 0.322,10.80435 c 0.17711,5.94239 0.17644,15.39239 -0.001,21 l -0.32349,10.19565 z m -27.11341,3 0.0102,-6 0.40466,3.26791 c 0.22256,1.79735 0.21797,4.49735 -0.0102,6 l -0.41487,2.73209 z m 26.88508,-29 0.0371,-3 0.46099,1.76903 c 0.25354,0.97297 0.23687,2.32297 -0.0371,3 l -0.49805,1.23097 z m 84.89693,-25.54805 -0.17031,-7.97809 0.78921,0.22552 c 0.43407,0.12404 1.84026,-0.35654 3.12487,-1.06795 l 2.33564,-1.29347 0.56548,0.56548 0.56548,0.56547 1.31707,-1.73445 1.31707,-1.73446 0.0465,1.5 0.0465,1.5 1.23526,-2.16384 c 0.67939,-1.19011 2.90394,-4.13849 4.94343,-6.55195 l 3.70817,-4.3881 -0.5748,-2.19806 -0.5748,-2.19805 -3.13337,-0.10596 c -1.72335,-0.0583 -4.48337,-0.0388 -6.13337,0.0433 l -3,0.14922 1.5,-1.08801 1.5,-1.08801 -2.48905,0.29475 -2.48906,0.29475 -0.0564,-1.5 -0.0564,-1.5 -1.08548,0.21031 -1.08547,0.21031 -1.74272,-1.92568 -1.74272,-1.92568 -0.0385,-7.23058 -0.0385,-7.23057 1.16217,-0.38739 c 0.63925,-0.2131 1.16222,-0.82648 1.16222,-1.36311 v -0.97568 l -1.19667,0.73958 -1.19666,0.73958 2.27313,-3.19232 2.27313,-3.19233 0.87336,0.53977 0.87336,0.53977 1.10035,-2.05602 1.10035,-2.05602 0.88072,0.54432 0.88073,0.54432 0.5701,-0.92243 0.57009,-0.92243 2.24901,0.49287 2.249,0.49286 -1.5,-1.07143 -1.5,-1.07143 2.80902,-0.0153 2.80901,-0.0153 -0.61803,1 -0.61803,1 h 1.05901 1.05902 v -1 -1 h 2.92857 2.92857 l 1.32143,1.32143 c 1.35857,1.35854 2.08709,1.67854 3.82143,1.67854 h 1 l -0.25,1.25 -0.25,1.25 1.25,-0.25 1.25,-0.25 v 1.44098 c 0,0.79254 0.51953,1.76207 1.15451,2.15451 l 1.15451,0.71353 -0.80902,-1.30902 -0.80902,-1.30902 1.11084,0.68654 1.11083,0.68653 -0.5245,1.36682 -0.5245,1.36683 1.22268,0.75566 1.22269,0.75566 -0.80902,-1.30902 -0.80902,-1.30902 1.15451,0.71353 1.15451,0.71352 v 2.44099 2.44098 h 1 1 v 9.05902 9.05901 l -1.14499,-0.70764 -1.14499,-0.70764 0.53701,2.80916 0.537,2.80916 -0.98942,2.83828 -0.98943,2.83828 -0.8306,-0.51334 -0.83059,-0.51333 -0.63654,2.00557 -0.63655,2.00557 0.71906,1.16346 0.71906,1.16346 -1.04973,-0.64877 -1.04972,-0.64876 -0.59333,1.54619 -0.59333,1.5462 1.08831,-0.67262 1.08832,-0.67261 -1.13496,2.12067 -1.13495,2.12068 -1.21481,0.11842 c -0.66815,0.0651 -1.55232,0.0651 -1.96482,0 -1.25794,-0.19862 -0.83451,1.68081 0.5,2.2193 l 1.25,0.50439 -1.75,0.0789 -1.75,0.079 v 0.83264 c 0,0.45794 -1.8788,2.34248 -4.17511,4.18784 -2.29632,1.84537 -3.84476,2.82068 -3.44099,2.16737 l 0.73413,-1.18785 h -1.55901 -1.55902 v 1.44098 c 0,1.93445 -1.70935,2.87164 -5.06367,2.77627 l -2.77544,-0.0789 -0.54906,1.43083 -0.54906,1.43082 h -1.53139 -1.53138 v -1.03518 -1.03519 l -1.86891,1.00021 -1.8689,1.00021 z m 15.71499,-15.47841 -0.55979,-0.5598 -0.68279,1.79313 -0.68278,1.79313 1.24258,-1.23333 1.24258,-1.23334 z m 7.9223,-45.07771 -0.60417,-0.60416 -1.3125,0.52522 -1.3125,0.52522 1.91667,0.0789 1.91666,0.079 z m 56.03874,48.87944 c 1.79735,-0.22256 4.49735,-0.21797 6,0.0102 l 2.73209,0.41487 -6,-0.0102 -6,-0.0102 z"
       id="path10" />
  </g>
</svg>
